name C:\Users\u0101727\Documents\MyRepositories\predictivesimulations\OpenSimModel\subject1\GRF\gait_61_test.mot
datacolumns 19
datarows 12
range 2.07100000 2.08200000
endheader

                time	     ground_force_vx	     ground_force_vy	     ground_force_vz	     ground_force_px	     ground_force_py	     ground_force_pz	   1_ground_force_vx	   1_ground_force_vy	   1_ground_force_vz	   1_ground_force_px	   1_ground_force_py	   1_ground_force_pz	     ground_torque_x	     ground_torque_y	     ground_torque_z	   1_ground_torque_x	   1_ground_torque_y	   1_ground_torque_z	
          2.07100000	        -43.87584089	        609.98721632	         30.69082484	         -0.29815362	          0.00000000	          0.15237146	          0.00000000	          0.00000000	          0.00000000	          0.00000000	          0.00000000	          0.00000000	          0.00000000	          1.26464416	          0.00000000	          0.00000000	          0.00000000	          0.00000000	
          2.07200000	        -43.29812023	        608.10532289	         30.44017555	         -0.29771297	          0.00000000	          0.15238030	          0.00000000	          0.00000000	          0.00000000	          0.00000000	          0.00000000	          0.00000000	          0.00000000	          1.24791644	          0.00000000	          0.00000000	          0.00000000	          0.00000000	
          2.07300000	        -42.72892484	        606.19256419	         30.19595266	         -0.29726482	          0.00000000	          0.15238862	          0.00000000	          0.00000000	          0.00000000	          0.00000000	          0.00000000	          0.00000000	          0.00000000	          1.23081387	          0.00000000	          0.00000000	          0.00000000	          0.00000000	
          2.07400000	        -42.16819093	        604.24953801	         29.95858677	         -0.29680911	          0.00000000	          0.15239640	          0.00000000	          0.00000000	          0.00000000	          0.00000000	          0.00000000	          0.00000000	          0.00000000	          1.21337627	          0.00000000	          0.00000000	          0.00000000	          0.00000000	
          2.07500000	        -41.61585770	        602.27687738	         29.72847660	         -0.29634579	          0.00000000	          0.15240361	          0.00000000	          0.00000000	          0.00000000	          0.00000000	          0.00000000	          0.00000000	          0.00000000	          1.19564406	          0.00000000	          0.00000000	          0.00000000	          0.00000000	
          2.07600000	        -41.07186761	        600.27525103	         29.50598761	         -0.29587478	          0.00000000	          0.15241025	          0.00000000	          0.00000000	          0.00000000	          0.00000000	          0.00000000	          0.00000000	          0.00000000	          1.17765808	          0.00000000	          0.00000000	          0.00000000	          0.00000000	
          2.07700000	        -40.53616675	        598.24536353	         29.29145083	         -0.29539602	          0.00000000	          0.15241628	          0.00000000	          0.00000000	          0.00000000	          0.00000000	          0.00000000	          0.00000000	          0.00000000	          1.15945948	          0.00000000	          0.00000000	          0.00000000	          0.00000000	
          2.07800000	        -40.00870508	        596.18795548	         29.08516184	         -0.29490946	          0.00000000	          0.15242169	          0.00000000	          0.00000000	          0.00000000	          0.00000000	          0.00000000	          0.00000000	          0.00000000	          1.14108956	          0.00000000	          0.00000000	          0.00000000	          0.00000000	
          2.07900000	        -39.48943663	        594.10380348	         28.88737978	         -0.29441502	          0.00000000	          0.15242646	          0.00000000	          0.00000000	          0.00000000	          0.00000000	          0.00000000	          0.00000000	          0.00000000	          1.12258963	          0.00000000	          0.00000000	          0.00000000	          0.00000000	
          2.08000000	        -38.97831963	        591.99372007	         28.69832663	         -0.29391264	          0.00000000	          0.15243059	          0.00000000	          0.00000000	          0.00000000	          0.00000000	          0.00000000	          0.00000000	          0.00000000	          1.10400089	          0.00000000	          0.00000000	          0.00000000	          0.00000000	
          2.08100000	        -38.47531661	        589.85855353	         28.51818652	         -0.29340227	          0.00000000	          0.15243406	          0.00000000	          0.00000000	          0.00000000	          0.00000000	          0.00000000	          0.00000000	          0.00000000	          1.08536424	          0.00000000	          0.00000000	          0.00000000	          0.00000000	
          2.08200000	        -37.98039437	        587.69918766	         28.34710529	         -0.29288384	          0.00000000	          0.15243686	          0.00000000	          0.00000000	          0.00000000	          0.00000000	          0.00000000	          0.00000000	          0.00000000	          1.06672019	          0.00000000	          0.00000000	          0.00000000	          0.00000000	
